<mxfile>
    <diagram id="xLTNWfZfP8uCeLcuHM0t" name="Page-1">
        <mxGraphModel dx="1140" dy="658" grid="1" gridSize="10" guides="1" tooltips="1" connect="1" arrows="1" fold="1" page="1" pageScale="1" pageWidth="827" pageHeight="1169" math="0" shadow="0">
            <root>
                <mxCell id="0"/>
                <mxCell id="1" parent="0"/>
                <mxCell id="2" value="Desenvolvimento" style="swimlane;html=1;childLayout=stackLayout;resizeParent=1;resizeParentMax=0;horizontal=0;startSize=20;horizontalStack=0;" vertex="1" parent="1">
                    <mxGeometry x="30" y="60" width="850" height="140" as="geometry"/>
                </mxCell>
                <mxCell id="3" value="Dev 1" style="swimlane;html=1;startSize=20;horizontal=0;" vertex="1" parent="2">
                    <mxGeometry x="20" width="830" height="70" as="geometry"/>
                </mxCell>
                <mxCell id="8" value="DriverQoLService" style="rounded=1;whiteSpace=wrap;html=1;fillColor=#60a917;strokeColor=#2D7600;fontColor=#ffffff;" vertex="1" parent="3">
                    <mxGeometry x="30" y="20" width="160" height="30" as="geometry"/>
                </mxCell>
                <mxCell id="52" value="&lt;font style=&quot;font-size: 9px&quot;&gt;DriverQoL&amp;nbsp;- correções&lt;/font&gt;" style="rounded=1;whiteSpace=wrap;html=1;fillColor=#60a917;strokeColor=#2D7600;fontColor=#ffffff;" vertex="1" parent="3">
                    <mxGeometry x="251.5" y="20" width="68.5" height="30" as="geometry"/>
                </mxCell>
                <mxCell id="12" value="DbSync" style="rounded=1;whiteSpace=wrap;html=1;fillColor=#60a917;strokeColor=#2D7600;fontColor=#ffffff;" vertex="1" parent="3">
                    <mxGeometry x="197" y="20" width="48" height="30" as="geometry"/>
                </mxCell>
                <mxCell id="74" value="&lt;font style=&quot;font-size: 9px&quot;&gt;DbSync - correções&lt;/font&gt;" style="rounded=1;whiteSpace=wrap;html=1;fillColor=#60a917;strokeColor=#2D7600;fontColor=#ffffff;" vertex="1" parent="3">
                    <mxGeometry x="420" y="20" width="50" height="30" as="geometry"/>
                </mxCell>
                <mxCell id="17" value="WebCrawler" style="rounded=1;whiteSpace=wrap;html=1;fillColor=#60a917;strokeColor=#2D7600;fontColor=#ffffff;" vertex="1" parent="3">
                    <mxGeometry x="330" y="20" width="80" height="30" as="geometry"/>
                </mxCell>
                <mxCell id="81" value="&lt;font style=&quot;font-size: 9px&quot;&gt;WebCrawle - correções&lt;/font&gt;" style="rounded=1;whiteSpace=wrap;html=1;fillColor=#60a917;strokeColor=#2D7600;fontColor=#ffffff;" vertex="1" parent="3">
                    <mxGeometry x="480" y="20" width="50" height="30" as="geometry"/>
                </mxCell>
                <mxCell id="84" value="&lt;font style=&quot;font-size: 9px&quot;&gt;DriverQoLService-Publicação&amp;nbsp;&lt;/font&gt;" style="rounded=1;whiteSpace=wrap;html=1;fillColor=#60a917;strokeColor=#2D7600;fontColor=#ffffff;" vertex="1" parent="3">
                    <mxGeometry x="540" y="20" width="90" height="30" as="geometry"/>
                </mxCell>
                <mxCell id="86" value="&lt;font style=&quot;font-size: 9px&quot;&gt;App - Publicação&lt;/font&gt;" style="rounded=1;whiteSpace=wrap;html=1;fillColor=#6a00ff;strokeColor=#3700CC;fontColor=#ffffff;" vertex="1" parent="3">
                    <mxGeometry x="660" y="20" width="70" height="30" as="geometry"/>
                </mxCell>
                <mxCell id="4" value="Dev 2" style="swimlane;html=1;startSize=20;horizontal=0;" vertex="1" parent="2">
                    <mxGeometry x="20" y="70" width="830" height="70" as="geometry"/>
                </mxCell>
                <mxCell id="18" value="NotificationService" style="rounded=1;whiteSpace=wrap;html=1;fillColor=#a20025;strokeColor=#6F0000;fontColor=#ffffff;" vertex="1" parent="4">
                    <mxGeometry x="30" y="20" width="150" height="30" as="geometry"/>
                </mxCell>
                <mxCell id="45" value="ProxyFCM" style="rounded=1;whiteSpace=wrap;html=1;fillColor=#a20025;strokeColor=#6F0000;fontColor=#ffffff;" vertex="1" parent="4">
                    <mxGeometry x="190" y="20" width="80" height="30" as="geometry"/>
                </mxCell>
                <mxCell id="72" value="&lt;font style=&quot;font-size: 9px&quot;&gt;Notification - Correções&lt;/font&gt;" style="rounded=1;whiteSpace=wrap;html=1;fillColor=#a20025;strokeColor=#6F0000;fontColor=#ffffff;" vertex="1" parent="4">
                    <mxGeometry x="500" y="20" width="60" height="30" as="geometry"/>
                </mxCell>
                <mxCell id="20" value="App" style="rounded=1;whiteSpace=wrap;html=1;fillColor=#6a00ff;strokeColor=#3700CC;fontColor=#ffffff;" vertex="1" parent="4">
                    <mxGeometry x="280" y="20" width="150" height="30" as="geometry"/>
                </mxCell>
                <mxCell id="75" value="&lt;font style=&quot;font-size: 9px&quot;&gt;ProxyFCM- Correções&lt;/font&gt;" style="rounded=1;whiteSpace=wrap;html=1;fillColor=#a20025;strokeColor=#6F0000;fontColor=#ffffff;" vertex="1" parent="4">
                    <mxGeometry x="440" y="20" width="50" height="30" as="geometry"/>
                </mxCell>
                <mxCell id="83" value="&lt;font style=&quot;font-size: 9px&quot;&gt;App -Correções&lt;/font&gt;" style="rounded=1;whiteSpace=wrap;html=1;fillColor=#6a00ff;strokeColor=#3700CC;fontColor=#ffffff;" vertex="1" parent="4">
                    <mxGeometry x="570" y="20" width="70" height="30" as="geometry"/>
                </mxCell>
                <mxCell id="85" value="&lt;font style=&quot;font-size: 9px&quot;&gt;Notification-Publicação&amp;nbsp;&lt;/font&gt;" style="rounded=1;whiteSpace=wrap;html=1;fillColor=#a20025;strokeColor=#6F0000;fontColor=#ffffff;" vertex="1" parent="4">
                    <mxGeometry x="650" y="20" width="90" height="30" as="geometry"/>
                </mxCell>
                <mxCell id="10" value="" style="endArrow=none;html=1;" edge="1" parent="1">
                    <mxGeometry width="50" height="50" relative="1" as="geometry">
                        <mxPoint x="80" y="40" as="sourcePoint"/>
                        <mxPoint x="880" y="40" as="targetPoint"/>
                    </mxGeometry>
                </mxCell>
                <mxCell id="11" value="Dia 1" style="text;html=1;strokeColor=none;fillColor=none;align=center;verticalAlign=middle;whiteSpace=wrap;rounded=0;" vertex="1" parent="1">
                    <mxGeometry x="90" y="10" width="60" height="20" as="geometry"/>
                </mxCell>
                <mxCell id="13" value="Dia 2" style="text;html=1;strokeColor=none;fillColor=none;align=center;verticalAlign=middle;whiteSpace=wrap;rounded=0;" vertex="1" parent="1">
                    <mxGeometry x="170" y="10" width="60" height="20" as="geometry"/>
                </mxCell>
                <mxCell id="14" value="Dia 3" style="text;html=1;strokeColor=none;fillColor=none;align=center;verticalAlign=middle;whiteSpace=wrap;rounded=0;" vertex="1" parent="1">
                    <mxGeometry x="250" y="10" width="60" height="20" as="geometry"/>
                </mxCell>
                <mxCell id="15" value="Dia 4" style="text;html=1;strokeColor=none;fillColor=none;align=center;verticalAlign=middle;whiteSpace=wrap;rounded=0;" vertex="1" parent="1">
                    <mxGeometry x="330" y="10" width="60" height="20" as="geometry"/>
                </mxCell>
                <mxCell id="16" value="Dia 5" style="text;html=1;strokeColor=none;fillColor=none;align=center;verticalAlign=middle;whiteSpace=wrap;rounded=0;" vertex="1" parent="1">
                    <mxGeometry x="410" y="10" width="60" height="20" as="geometry"/>
                </mxCell>
                <mxCell id="21" value="Squad DevOps" style="swimlane;html=1;childLayout=stackLayout;resizeParent=1;resizeParentMax=0;horizontal=0;startSize=20;horizontalStack=0;" vertex="1" parent="1">
                    <mxGeometry x="30" y="340" width="850" height="100" as="geometry"/>
                </mxCell>
                <mxCell id="53" value="Dev 1" style="swimlane;html=1;startSize=20;horizontal=0;" vertex="1" parent="21">
                    <mxGeometry x="20" width="830" height="100" as="geometry"/>
                </mxCell>
                <mxCell id="55" value="&lt;font style=&quot;font-size: 8px&quot;&gt;DriverQoL-CD&lt;br&gt;&lt;/font&gt;" style="rounded=1;whiteSpace=wrap;html=1;fillColor=#60a917;strokeColor=#2D7600;fontColor=#ffffff;" vertex="1" parent="53">
                    <mxGeometry x="120" y="34.56" width="50" height="30" as="geometry"/>
                </mxCell>
                <mxCell id="60" value="&lt;font style=&quot;font-size: 8px&quot;&gt;Notification-CD&lt;br&gt;&lt;/font&gt;" style="rounded=1;whiteSpace=wrap;html=1;fillColor=#a20025;strokeColor=#6F0000;fontColor=#ffffff;" vertex="1" parent="53">
                    <mxGeometry x="500" y="35.19" width="50" height="30" as="geometry"/>
                </mxCell>
                <mxCell id="62" value="&lt;font style=&quot;font-size: 7px&quot;&gt;DriverQoL-Servidor&lt;/font&gt;" style="rounded=1;whiteSpace=wrap;html=1;fillColor=#60a917;strokeColor=#2D7600;fontColor=#ffffff;" vertex="1" parent="53">
                    <mxGeometry x="180" y="32.059999999999995" width="60" height="32.5" as="geometry"/>
                </mxCell>
                <mxCell id="64" value="&lt;font style=&quot;font-size: 9px&quot;&gt;DriverQoLService-Persistencia&lt;/font&gt;" style="rounded=1;whiteSpace=wrap;html=1;fillColor=#60a917;strokeColor=#2D7600;fontColor=#ffffff;" vertex="1" parent="53">
                    <mxGeometry x="30" y="34.56" width="80" height="30" as="geometry"/>
                </mxCell>
                <mxCell id="65" value="&lt;font style=&quot;font-size: 10px&quot;&gt;Mensageria-Servidor&lt;/font&gt;" style="rounded=1;whiteSpace=wrap;html=1;fillColor=#76608a;strokeColor=#432D57;fontColor=#ffffff;" vertex="1" parent="53">
                    <mxGeometry x="610" y="36.69" width="80" height="30" as="geometry"/>
                </mxCell>
                <mxCell id="66" value="&lt;font style=&quot;font-size: 10px&quot;&gt;FCM-Config&lt;/font&gt;" style="rounded=1;whiteSpace=wrap;html=1;fillColor=#a20025;strokeColor=#6F0000;fontColor=#ffffff;" vertex="1" parent="53">
                    <mxGeometry x="550" y="36.44" width="56" height="30" as="geometry"/>
                </mxCell>
                <mxCell id="67" value="&lt;font style=&quot;font-size: 9px&quot;&gt;Notification-Persistencia&lt;/font&gt;" style="rounded=1;whiteSpace=wrap;html=1;fillColor=#a20025;strokeColor=#6F0000;fontColor=#ffffff;" vertex="1" parent="53">
                    <mxGeometry x="420" y="36.44" width="80" height="30" as="geometry"/>
                </mxCell>
                <mxCell id="68" value="&lt;font style=&quot;font-size: 7px&quot;&gt;Notification-CI&lt;br&gt;&lt;/font&gt;" style="rounded=1;whiteSpace=wrap;html=1;fillColor=#a20025;strokeColor=#6F0000;fontColor=#ffffff;" vertex="1" parent="53">
                    <mxGeometry x="363.5" y="33.31" width="50" height="32.5" as="geometry"/>
                </mxCell>
                <mxCell id="69" value="&lt;font style=&quot;font-size: 7px&quot;&gt;Notification-Servidor&lt;/font&gt;" style="rounded=1;whiteSpace=wrap;html=1;fillColor=#a20025;strokeColor=#6F0000;fontColor=#ffffff;" vertex="1" parent="53">
                    <mxGeometry x="300" y="33.94" width="60" height="32.5" as="geometry"/>
                </mxCell>
                <mxCell id="70" value="&lt;font style=&quot;font-size: 7px&quot;&gt;DriverQoL-CI&lt;br&gt;&lt;/font&gt;" style="rounded=1;whiteSpace=wrap;html=1;fillColor=#60a917;strokeColor=#2D7600;fontColor=#ffffff;" vertex="1" parent="53">
                    <mxGeometry x="245" y="33.31" width="50" height="32.5" as="geometry"/>
                </mxCell>
                <mxCell id="30" value="QA" style="swimlane;html=1;childLayout=stackLayout;resizeParent=1;resizeParentMax=0;horizontal=0;startSize=20;horizontalStack=0;" vertex="1" parent="1">
                    <mxGeometry x="30" y="200" width="850" height="140" as="geometry"/>
                </mxCell>
                <mxCell id="31" value="QA 1" style="swimlane;html=1;startSize=20;horizontal=0;" vertex="1" parent="30">
                    <mxGeometry x="20" width="830" height="70" as="geometry"/>
                </mxCell>
                <mxCell id="32" value="&lt;font style=&quot;font-size: 9px&quot;&gt;DriverQoL-Definição de testes&lt;/font&gt;" style="rounded=1;whiteSpace=wrap;html=1;fillColor=#60a917;strokeColor=#2D7600;fontColor=#ffffff;" vertex="1" parent="31">
                    <mxGeometry x="30" y="16" width="80" height="40" as="geometry"/>
                </mxCell>
                <mxCell id="46" value="&lt;font style=&quot;font-size: 9px&quot;&gt;DriverQoL&amp;nbsp;- Execução de testes&lt;/font&gt;" style="rounded=1;whiteSpace=wrap;html=1;fillColor=#60a917;strokeColor=#2D7600;fontColor=#ffffff;" vertex="1" parent="31">
                    <mxGeometry x="200" y="16" width="110" height="40" as="geometry"/>
                </mxCell>
                <mxCell id="73" value="&lt;font style=&quot;font-size: 9px&quot;&gt;DbSync- Execução de testes&lt;/font&gt;" style="rounded=1;whiteSpace=wrap;html=1;fillColor=#60a917;strokeColor=#2D7600;fontColor=#ffffff;" vertex="1" parent="31">
                    <mxGeometry x="320" y="16" width="60" height="40" as="geometry"/>
                </mxCell>
                <mxCell id="79" value="&lt;font style=&quot;font-size: 8px&quot;&gt;WebCrawler - Definição de testes&lt;/font&gt;" style="rounded=1;whiteSpace=wrap;html=1;fillColor=#60a917;strokeColor=#2D7600;fontColor=#ffffff;" vertex="1" parent="31">
                    <mxGeometry x="390" y="15" width="50" height="40" as="geometry"/>
                </mxCell>
                <mxCell id="80" value="&lt;font style=&quot;font-size: 9px&quot;&gt;Web Crawler- Execução de testes&lt;/font&gt;" style="rounded=1;whiteSpace=wrap;html=1;fillColor=#60a917;strokeColor=#2D7600;fontColor=#ffffff;" vertex="1" parent="31">
                    <mxGeometry x="450" y="15" width="60" height="40" as="geometry"/>
                </mxCell>
                <mxCell id="33" value="&lt;font style=&quot;font-size: 8px&quot;&gt;DbSync - Definição de testes&lt;/font&gt;" style="rounded=1;whiteSpace=wrap;html=1;fillColor=#60a917;strokeColor=#2D7600;fontColor=#ffffff;" vertex="1" parent="31">
                    <mxGeometry x="130" y="16" width="50" height="40" as="geometry"/>
                </mxCell>
                <mxCell id="34" value="QA 2" style="swimlane;html=1;startSize=20;horizontal=0;" vertex="1" parent="30">
                    <mxGeometry x="20" y="70" width="830" height="70" as="geometry"/>
                </mxCell>
                <mxCell id="71" value="&lt;font style=&quot;font-size: 9px&quot;&gt;Notification - Execução de testes&lt;/font&gt;" style="rounded=1;whiteSpace=wrap;html=1;fillColor=#a20025;strokeColor=#6F0000;fontColor=#ffffff;" vertex="1" parent="34">
                    <mxGeometry x="180" y="14" width="110" height="40" as="geometry"/>
                </mxCell>
                <mxCell id="77" value="&lt;font style=&quot;font-size: 9px&quot;&gt;ProxyFCM- Execução de testes&lt;/font&gt;" style="rounded=1;whiteSpace=wrap;html=1;fillColor=#a20025;strokeColor=#6F0000;fontColor=#ffffff;" vertex="1" parent="34">
                    <mxGeometry x="290" y="14" width="50" height="40" as="geometry"/>
                </mxCell>
                <mxCell id="76" value="&lt;font style=&quot;font-size: 8px&quot;&gt;ProxyFCM - Definição de testes&lt;/font&gt;" style="rounded=1;whiteSpace=wrap;html=1;fillColor=#a20025;strokeColor=#6F0000;fontColor=#ffffff;" vertex="1" parent="34">
                    <mxGeometry x="30" y="14" width="56.5" height="40" as="geometry"/>
                </mxCell>
                <mxCell id="78" value="&lt;font style=&quot;font-size: 9px&quot;&gt;App - Execução de testes&lt;/font&gt;" style="rounded=1;whiteSpace=wrap;html=1;fillColor=#6a00ff;strokeColor=#3700CC;fontColor=#ffffff;" vertex="1" parent="34">
                    <mxGeometry x="430" y="15" width="70" height="40" as="geometry"/>
                </mxCell>
                <mxCell id="43" value="&lt;font style=&quot;font-size: 9px&quot;&gt;Notification-Definição de testes&lt;/font&gt;" style="rounded=1;whiteSpace=wrap;html=1;fillColor=#a20025;strokeColor=#6F0000;fontColor=#ffffff;" vertex="1" parent="34">
                    <mxGeometry x="90" y="14" width="80" height="40" as="geometry"/>
                </mxCell>
                <mxCell id="44" value="&lt;font style=&quot;font-size: 9px&quot;&gt;App - Definição de testes&lt;/font&gt;" style="rounded=1;whiteSpace=wrap;html=1;fillColor=#6a00ff;strokeColor=#3700CC;fontColor=#ffffff;" vertex="1" parent="34">
                    <mxGeometry x="350" y="15" width="70" height="40" as="geometry"/>
                </mxCell>
                <mxCell id="47" value="Dia 6" style="text;html=1;strokeColor=none;fillColor=none;align=center;verticalAlign=middle;whiteSpace=wrap;rounded=0;" vertex="1" parent="1">
                    <mxGeometry x="500" y="10" width="60" height="20" as="geometry"/>
                </mxCell>
                <mxCell id="48" value="Dia 7" style="text;html=1;strokeColor=none;fillColor=none;align=center;verticalAlign=middle;whiteSpace=wrap;rounded=0;" vertex="1" parent="1">
                    <mxGeometry x="570" y="10" width="60" height="20" as="geometry"/>
                </mxCell>
                <mxCell id="49" value="Dia 8" style="text;html=1;strokeColor=none;fillColor=none;align=center;verticalAlign=middle;whiteSpace=wrap;rounded=0;" vertex="1" parent="1">
                    <mxGeometry x="650" y="10" width="60" height="20" as="geometry"/>
                </mxCell>
                <mxCell id="50" value="Dia 9" style="text;html=1;strokeColor=none;fillColor=none;align=center;verticalAlign=middle;whiteSpace=wrap;rounded=0;" vertex="1" parent="1">
                    <mxGeometry x="730" y="10" width="60" height="20" as="geometry"/>
                </mxCell>
                <mxCell id="51" value="Dia 10" style="text;html=1;strokeColor=none;fillColor=none;align=center;verticalAlign=middle;whiteSpace=wrap;rounded=0;" vertex="1" parent="1">
                    <mxGeometry x="810" y="10" width="60" height="20" as="geometry"/>
                </mxCell>
            </root>
        </mxGraphModel>
    </diagram>
</mxfile>